<?xml version="1.0" standalone="no"?>
<!DOCTYPE svg PUBLIC "-//W3C//DTD SVG 20010904//EN"
 "http://www.w3.org/TR/2001/REC-SVG-20010904/DTD/svg10.dtd">
<svg version="1.0" xmlns="http://www.w3.org/2000/svg"
 width="300.000000pt" height="300.000000pt" viewBox="0 0 300.000000 300.000000"
 preserveAspectRatio="xMidYMid meet">
<metadata>
Created by potrace 1.11, written by Peter Selinger 2001-2013
</metadata>
<g transform="translate(0.000000,300.000000) scale(0.100000,-0.100000)"
fill="#000000" stroke="none">
<path d="M500 2554 c-94 -6 -274 -25 -294 -31 -18 -5 -19 -16 -13 -277 6 -289
23 -479 63 -696 24 -128 49 -239 56 -245 3 -2 399 -35 425 -35 7 0 45 48 85
107 112 167 178 257 178 242 0 -8 -9 -63 -19 -124 -49 -281 -86 -665 -86 -890
l0 -100 220 -21 c121 -12 241 -25 267 -28 l46 -6 75 92 c288 358 824 897 1225
1233 l84 70 -34 28 c-75 64 -308 211 -434 274 l-134 68 -148 -154 c-229 -240
-403 -450 -605 -731 -15 -21 -17 -22 -13 -5 83 331 205 756 274 953 l40 113
-26 10 c-52 20 -328 87 -427 104 -55 9 -127 18 -160 18 l-60 2 -75 -101 c-62
-82 -194 -287 -291 -449 l-18 -30 4 70 c3 39 12 172 22 297 9 126 14 230 11
233 -7 7 -172 13 -238 9z"/>
</g>
</svg>
